<svg width="106" height="19" viewBox="0 0 106 19" fill="none" xmlns="http://www.w3.org/2000/svg">
<path d="M94.0464 17.758L93.7164 12.83H94.5304C94.7358 14.1647 95.2858 15.2133 96.1804 15.976C97.0898 16.724 98.2044 17.098 99.5244 17.098C100.61 17.098 101.468 16.8413 102.098 16.328C102.729 15.8 103.044 15.1033 103.044 14.238C103.044 13.7393 102.927 13.2993 102.692 12.918C102.472 12.522 102.084 12.1407 101.526 11.774C100.969 11.4073 100.192 11.0113 99.1944 10.586C97.9771 10.0433 97.0164 9.53 96.3124 9.046C95.6231 8.562 95.1318 8.04133 94.8384 7.484C94.5598 6.912 94.4204 6.252 94.4204 5.504C94.4204 4.59467 94.6258 3.788 95.0364 3.084C95.4618 2.38 96.0411 1.83 96.7744 1.434C97.5224 1.038 98.3804 0.84 99.3484 0.84C100.58 0.84 101.746 1.27267 102.846 2.138L103.418 1.148H103.924L104.166 5.526H103.352C103 4.32333 102.487 3.42867 101.812 2.842C101.152 2.25533 100.353 1.962 99.4144 1.962C98.5198 1.962 97.8084 2.18933 97.2804 2.644C96.7524 3.084 96.4884 3.67067 96.4884 4.404C96.4884 5.09333 96.7378 5.68733 97.2364 6.186C97.7351 6.67 98.6078 7.19067 99.8544 7.748C101.306 8.39333 102.436 8.98733 103.242 9.53C104.064 10.0727 104.636 10.63 104.958 11.202C105.281 11.774 105.442 12.4487 105.442 13.226C105.442 14.2087 105.186 15.074 104.672 15.822C104.174 16.57 103.477 17.1567 102.582 17.582C101.688 18.0073 100.646 18.22 99.4584 18.22C98.6224 18.22 97.8671 18.1027 97.1924 17.868C96.5324 17.6187 95.8578 17.2227 95.1684 16.68L94.5524 17.758H94.0464Z" fill="black"/>
<path d="M84.2996 18V17.164C84.9889 17.1347 85.5022 17.0467 85.8396 16.9C86.1916 16.7533 86.4262 16.46 86.5436 16.02C86.6609 15.58 86.7196 14.9053 86.7196 13.996V5.064C86.7196 4.228 86.6682 3.59 86.5656 3.15C86.4629 2.71 86.2502 2.402 85.9276 2.226C85.6196 2.03533 85.1502 1.92533 84.5196 1.896V1.06H91.2076V1.896C90.5769 1.91066 90.1076 2.01333 89.7996 2.204C89.4916 2.38 89.2862 2.70266 89.1836 3.172C89.0809 3.64133 89.0296 4.32333 89.0296 5.218V13.842C89.0296 14.81 89.0809 15.5287 89.1836 15.998C89.3009 16.4527 89.5282 16.7533 89.8656 16.9C90.2176 17.0467 90.7382 17.1347 91.4276 17.164V18H84.2996Z" fill="black"/>
<path d="M82.5272 18H68.3152V17.164C69.0045 17.1347 69.5179 17.0613 69.8552 16.944C70.2072 16.812 70.4419 16.57 70.5592 16.218C70.6765 15.866 70.7352 15.3453 70.7352 14.656V4.404C70.7352 3.71466 70.6839 3.20133 70.5812 2.864C70.4785 2.512 70.2659 2.27 69.9432 2.138C69.6352 2.006 69.1659 1.92533 68.5352 1.896V1.06H75.2232V1.896C74.5925 1.91066 74.1232 1.99133 73.8152 2.138C73.5072 2.27 73.3019 2.51933 73.1992 2.886C73.0965 3.25266 73.0452 3.81 73.0452 4.558V14.04C73.0452 14.8613 73.1552 15.4847 73.3752 15.91C73.6099 16.3353 74.0132 16.6287 74.5852 16.79C75.1572 16.9367 75.9492 17.01 76.9612 17.01C78.0905 17.01 78.9852 16.922 79.6452 16.746C80.3052 16.57 80.8112 16.24 81.1632 15.756C81.5299 15.272 81.8159 14.5753 82.0212 13.666H82.8572L82.5272 18Z" fill="black"/>
<path d="M66.5428 18H52.3308V17.164C53.0202 17.1347 53.5335 17.0613 53.8708 16.944C54.2228 16.812 54.4575 16.57 54.5748 16.218C54.6921 15.866 54.7508 15.3453 54.7508 14.656V4.404C54.7508 3.71466 54.6995 3.20133 54.5968 2.864C54.4942 2.512 54.2815 2.27 53.9588 2.138C53.6508 2.006 53.1815 1.92533 52.5508 1.896V1.06H59.2388V1.896C58.6081 1.91066 58.1388 1.99133 57.8308 2.138C57.5228 2.27 57.3175 2.51933 57.2148 2.886C57.1121 3.25266 57.0608 3.81 57.0608 4.558V14.04C57.0608 14.8613 57.1708 15.4847 57.3908 15.91C57.6255 16.3353 58.0288 16.6287 58.6008 16.79C59.1728 16.9367 59.9648 17.01 60.9768 17.01C62.1062 17.01 63.0008 16.922 63.6608 16.746C64.3208 16.57 64.8268 16.24 65.1788 15.756C65.5455 15.272 65.8315 14.5753 66.0368 13.666H66.8728L66.5428 18Z" fill="black"/>
<path d="M41.0979 2.38V8.694C42.1539 8.694 42.9826 8.606 43.5839 8.43C44.1999 8.254 44.6326 7.98266 44.8819 7.616C45.1313 7.23466 45.2559 6.75066 45.2559 6.164H46.0259V12.17H45.2559C45.2559 11.5833 45.1386 11.0993 44.9039 10.718C44.6693 10.3367 44.2513 10.0507 43.6499 9.86C43.0486 9.66933 42.1979 9.574 41.0979 9.574V14.546C41.0979 15.1767 41.2079 15.6753 41.4279 16.042C41.6626 16.4087 42.0439 16.6727 42.5719 16.834C43.0999 16.9807 43.8259 17.054 44.7499 17.054C45.7913 17.054 46.6199 16.9513 47.2359 16.746C47.8666 16.5407 48.3579 16.196 48.7099 15.712C49.0619 15.2133 49.3333 14.5313 49.5239 13.666H50.3599L50.0299 18H36.3679V17.164C37.0573 17.1347 37.5706 17.0613 37.9079 16.944C38.2599 16.812 38.4946 16.57 38.6119 16.218C38.7293 15.866 38.7879 15.3453 38.7879 14.656V4.404C38.7879 3.71466 38.7366 3.20133 38.6339 2.864C38.5313 2.512 38.3186 2.27 37.9959 2.138C37.6879 2.006 37.2186 1.92533 36.5879 1.896V1.06H49.3039L49.5019 4.932H48.7319C48.6146 4.15466 48.3946 3.55333 48.0719 3.128C47.7639 2.70266 47.3019 2.40933 46.6859 2.248C46.0699 2.08666 45.2633 2.006 44.2659 2.006H41.4719C41.2226 2.006 41.0979 2.13066 41.0979 2.38Z" fill="black"/>
<path d="M32.516 5.306C32.516 6.46466 32.164 7.44 31.46 8.232C30.756 9.00933 29.634 9.53 28.094 9.794L32.956 15.646C33.352 16.13 33.792 16.482 34.276 16.702C34.76 16.9073 35.3247 17.0613 35.97 17.164V18H31.724L26.334 11.092C26.0847 10.7547 25.85 10.5053 25.63 10.344C25.41 10.1827 25.1534 10.08 24.86 10.036C24.5814 9.992 24.2147 9.97 23.76 9.97V14.546C23.76 15.2647 23.826 15.8147 23.958 16.196C24.1047 16.5773 24.3907 16.834 24.816 16.966C25.256 17.098 25.916 17.164 26.796 17.164V18H19.03V17.164C19.7194 17.1347 20.2327 17.0613 20.57 16.944C20.922 16.812 21.1567 16.57 21.274 16.218C21.3914 15.866 21.45 15.3453 21.45 14.656V4.404C21.45 3.71466 21.3987 3.20133 21.296 2.864C21.1934 2.512 20.9807 2.27 20.658 2.138C20.35 2.006 19.8807 1.92533 19.25 1.896V1.06H26.158C28.1674 1.06 29.7294 1.434 30.844 2.182C31.9587 2.93 32.516 3.97133 32.516 5.306ZM23.76 2.468V8.87H25.322C26.774 8.87 27.8594 8.59866 28.578 8.056C29.2967 7.51333 29.656 6.63333 29.656 5.416C29.656 4.24266 29.37 3.39933 28.798 2.886C28.2407 2.358 27.3607 2.094 26.158 2.094H24.134C23.8847 2.094 23.76 2.21866 23.76 2.468Z" fill="black"/>
<path d="M17.4519 1.06L17.6719 5.262H16.7699C16.7112 4.41133 16.5426 3.75133 16.2639 3.282C15.9999 2.81266 15.6039 2.48266 15.0759 2.292C14.5479 2.10133 13.8585 2.006 13.0079 2.006C12.2892 2.006 11.7465 2.028 11.3799 2.072C11.0279 2.116 10.7932 2.18933 10.6759 2.292C10.5732 2.38 10.5219 2.512 10.5219 2.688V14.458C10.5219 15.0887 10.5806 15.602 10.6979 15.998C10.8299 16.3793 11.1012 16.6653 11.5119 16.856C11.9226 17.032 12.5386 17.1347 13.3599 17.164V18H5.04388V17.164C5.87988 17.1347 6.49588 17.032 6.89188 16.856C7.30255 16.6653 7.57388 16.3793 7.70588 15.998C7.83788 15.602 7.90388 15.0887 7.90388 14.458V2.688C7.90388 2.512 7.85255 2.38 7.74989 2.292C7.64722 2.18933 7.44188 2.116 7.13388 2.072C6.84055 2.028 6.37855 2.006 5.74789 2.006C5.17589 2.006 4.64788 2.03533 4.16388 2.094C3.67988 2.138 3.25455 2.26266 2.88789 2.468C2.52122 2.67333 2.22788 2.996 2.00788 3.436C1.80255 3.876 1.68522 4.48466 1.65588 5.262H0.841881V1.06H17.4519Z" fill="black"/>
</svg>
